<svg width="112" height="112" viewBox="0 0 112 112" fill="none" xmlns="http://www.w3.org/2000/svg">
<g filter="url(#filter0_d)">
<rect x="18" y="12" width="80" height="80" rx="40" fill="#282F65"/>
</g>
<path d="M65.9554 64.144L64.8679 63.0565C64.7066 63.2463 64.5431 63.4353 64.3639 63.6138C64.1846 63.7923 63.9971 63.9565 63.8066 64.1178L64.8941 65.2053L65.9554 64.144Z" fill="#C0DFF8"/>
<path d="M43.7494 70.7499C43.7136 70.7586 43.6768 70.7629 43.6399 70.7626C43.4792 70.7728 43.3197 70.7288 43.1869 70.6377C43.0541 70.5466 42.9556 70.4137 42.9072 70.2601C42.7926 69.9248 42.5626 69.6411 42.2581 69.4597C41.9537 69.2783 41.5947 69.211 41.2453 69.2699C40.8958 69.3288 40.5787 69.5099 40.3505 69.781C40.1222 70.0521 39.9978 70.3955 39.9994 70.7499C40.0015 70.9778 40.0562 71.2021 40.1592 71.4054C40.2285 71.5459 40.2521 71.7045 40.2267 71.8591C40.2013 72.0137 40.1281 72.1564 40.0174 72.2673C39.9067 72.3782 39.764 72.4516 39.6095 72.4772C39.455 72.5029 39.2963 72.4795 39.1557 72.4104C38.8159 72.2425 38.425 72.2101 38.0621 72.3195C37.6993 72.4289 37.3915 72.6721 37.2012 72.9999H46.6512C46.4841 72.3569 46.1087 71.7874 45.5838 71.3803C45.0588 70.9733 44.4137 70.7516 43.7494 70.7499Z" fill="white"/>
<path d="M63.8335 67.3262C63.6929 67.1856 63.6139 66.9949 63.6139 66.796C63.6139 66.5971 63.6929 66.4064 63.8335 66.2657L62.5637 64.9952C60.6768 66.1078 58.4488 66.4941 56.2974 66.0815C54.1461 65.6689 52.219 64.4858 50.8775 62.754C49.5361 61.0223 48.8722 58.8607 49.0105 56.6745C49.1488 54.4883 50.0796 52.4276 51.6286 50.8786C53.1776 49.3296 55.2383 48.3988 57.4245 48.2605C59.6107 48.1222 61.7723 48.786 63.5041 50.1275C65.2358 51.469 66.4189 53.396 66.8315 55.5474C67.2441 57.6988 66.8579 59.9268 65.7453 61.8137L67.0158 63.0835C67.1564 62.9429 67.3471 62.8639 67.546 62.8639C67.7449 62.8639 67.9356 62.9429 68.0763 63.0835L70.75 65.7572V51.5605L58.5303 39.3407C58.3877 39.2039 58.1977 39.1274 58 39.1274C57.8023 39.1274 57.6123 39.2039 57.4697 39.3407L45.25 51.5605V69.511C46.0048 69.7796 46.6743 70.2444 47.1899 70.8576C47.7054 71.4708 48.0483 72.2103 48.1832 73H69.508L63.8335 67.3262Z" fill="white"/>
<path d="M57.4695 34.8407L40.155 52.1552C40.0768 52.2333 40.0147 52.326 39.9724 52.428C39.93 52.5301 39.9082 52.6395 39.9082 52.75C39.9082 52.8605 39.93 52.9699 39.9724 53.072C40.0147 53.174 40.0768 53.2667 40.155 53.3447C40.3131 53.5018 40.5269 53.59 40.7498 53.59C40.9726 53.59 41.1864 53.5018 41.3445 53.3447L56.409 38.2802C56.618 38.0713 56.866 37.9055 57.139 37.7924C57.412 37.6793 57.7046 37.6211 58.0001 37.6211C58.2956 37.6211 58.5883 37.6793 58.8613 37.7924C59.1343 37.9055 59.3823 38.0713 59.5913 38.2802L74.655 53.3447C74.8128 53.5025 75.0267 53.5911 75.2498 53.5911C75.4728 53.5911 75.6868 53.5025 75.8445 53.3447C76.0023 53.187 76.0909 52.9731 76.0909 52.75C76.0909 52.5269 76.0023 52.313 75.8445 52.1552L58.53 34.8407C58.3874 34.7039 58.1974 34.6274 57.9998 34.6274C57.8021 34.6274 57.6121 34.7039 57.4695 34.8407Z" fill="white"/>
<path d="M70.75 44.9395V37H66.25V40.4395L70.75 44.9395Z" fill="white"/>
<path d="M67.5371 68.9231L69.6586 66.8016L73.9006 71.0436L71.7791 73.1651L67.5371 68.9231Z" fill="#C0DFF8"/>
<path d="M65.416 66.8005L67.5373 64.6792L68.598 65.7399L66.4767 67.8612L65.416 66.8005Z" fill="#C0DFF8"/>
<path d="M64.75 34H72.2508V35.5H64.75V34Z" fill="white"/>
<path d="M63.3034 51.9468C62.2545 50.8978 60.9181 50.1835 59.4632 49.8941C58.0084 49.6047 56.5004 49.7532 55.1299 50.3209C53.7595 50.8885 52.5881 51.8498 51.764 53.0832C50.9399 54.3166 50.5 55.7666 50.5 57.25C50.5 58.7334 50.9399 60.1834 51.764 61.4168C52.5881 62.6502 53.7595 63.6115 55.1299 64.1791C56.5004 64.7468 58.0084 64.8953 59.4632 64.6059C60.9181 64.3165 62.2545 63.6022 63.3034 62.5533C64.0029 61.8586 64.5581 61.0324 64.937 60.1222C65.3159 59.212 65.511 58.2359 65.511 57.25C65.511 56.2641 65.3159 55.288 64.937 54.3778C64.5581 53.4676 64.0029 52.6414 63.3034 51.9468ZM62.2429 61.4928C61.4037 62.3318 60.3346 62.9033 59.1708 63.1347C58.0069 63.3662 56.8005 63.2474 55.7042 62.7933C54.6078 62.3391 53.6708 61.5701 53.0115 60.5834C52.3522 59.5967 52.0003 58.4367 52.0003 57.25C52.0003 56.0633 52.3522 54.9033 53.0115 53.9166C53.6708 52.9299 54.6078 52.1609 55.7042 51.7068C56.8005 51.2526 58.0069 51.1338 59.1708 51.3653C60.3346 51.5968 61.4037 52.1682 62.2429 53.0073C62.8024 53.5631 63.2464 54.2241 63.5494 54.9523C63.8525 55.6804 64.0085 56.4613 64.0085 57.25C64.0085 58.0387 63.8525 58.8196 63.5494 59.5477C63.2464 60.2759 62.8024 60.9369 62.2429 61.4928Z" fill="#C0DFF8"/>
<path d="M61.1817 54.0678C60.5523 53.4385 59.7505 53.01 58.8776 52.8364C58.0047 52.6628 57.1 52.752 56.2777 53.0926C55.4555 53.4332 54.7528 54.01 54.2583 54.75C53.7639 55.49 53.5 56.36 53.5 57.25C53.5 58.14 53.7639 59.01 54.2583 59.75C54.7528 60.49 55.4555 61.0668 56.2777 61.4074C57.1 61.748 58.0047 61.8372 58.8776 61.6636C59.7505 61.49 60.5523 61.0615 61.1817 60.4323C61.6014 60.0153 61.9344 59.5195 62.1617 58.9734C62.3889 58.4272 62.5059 57.8415 62.5059 57.25C62.5059 56.6585 62.3889 56.0728 62.1617 55.5266C61.9344 54.9805 61.6014 54.4847 61.1817 54.0678Z" fill="#C0DFF8"/>
<defs>
<filter id="filter0_d" x="0" y="0" width="112" height="112" filterUnits="userSpaceOnUse" color-interpolation-filters="sRGB">
<feFlood flood-opacity="0" result="BackgroundImageFix"/>
<feColorMatrix in="SourceAlpha" type="matrix" values="0 0 0 0 0 0 0 0 0 0 0 0 0 0 0 0 0 0 127 0" result="hardAlpha"/>
<feOffset dx="-2" dy="4"/>
<feGaussianBlur stdDeviation="8"/>
<feColorMatrix type="matrix" values="0 0 0 0 0.752941 0 0 0 0 0.87451 0 0 0 0 0.972549 0 0 0 0.8 0"/>
<feBlend mode="normal" in2="BackgroundImageFix" result="effect1_dropShadow"/>
<feBlend mode="normal" in="SourceGraphic" in2="effect1_dropShadow" result="shape"/>
</filter>
</defs>
</svg>
