<svg width="56" height="57" viewBox="0 0 56 57" fill="none" xmlns="http://www.w3.org/2000/svg">
<g filter="url(#filter0_d)">
<circle cx="28" cy="23" r="14" fill="#282F65"/>
</g>
<path fill-rule="evenodd" clip-rule="evenodd" d="M28.0007 18.3333C27.7743 18.0726 27.5104 17.8449 27.2192 17.6549C26.5758 17.2352 25.7993 17 25.0007 17C22.9473 17 21.334 18.5826 21.334 20.5967C21.334 21.3124 21.5045 21.992 21.7965 22.6386C22.7024 24.6457 24.7778 26.3395 26.5643 27.7975C27.0786 28.2173 27.569 28.6175 28.0007 29C28.4323 28.6175 28.9227 28.2173 29.437 27.7975C31.2234 26.3396 33.2988 24.6458 34.2047 22.6387C34.4968 21.9921 34.6673 21.3124 34.6673 20.5967C34.6673 18.5826 33.054 17 31.0007 17C30.202 17 29.4255 17.2352 28.7821 17.6549C28.4909 17.8449 28.227 18.0726 28.0007 18.3333ZM28.0007 27.2466C28.2158 27.0683 28.4358 26.8884 28.6554 26.7089C28.8415 26.5568 29.0273 26.4049 29.2097 26.2542C29.94 25.6513 30.6549 25.0387 31.2879 24.3967C32.0713 23.6022 32.6535 22.8376 32.9926 22.0828C33.2162 21.5845 33.334 21.0909 33.334 20.5967C33.334 19.343 32.3419 18.3333 31.0007 18.3333C30.2084 18.3333 29.469 18.6758 29.0075 19.2074L28.0007 20.3672L26.9938 19.2074C26.5323 18.6758 25.7929 18.3333 25.0007 18.3333C23.6594 18.3333 22.6673 19.343 22.6673 20.5967C22.6673 21.0909 22.7851 21.5845 23.0087 22.0828C23.3478 22.8376 23.93 23.6022 24.7134 24.3967C25.3464 25.0387 26.0613 25.6513 26.7916 26.2542C26.974 26.4049 27.1598 26.5568 27.3459 26.7089C27.5655 26.8884 27.7855 27.0683 28.0007 27.2466Z" fill="white"/>
<defs>
<filter id="filter0_d" x="-9.53674e-07" y="0.833333" width="56" height="56" filterUnits="userSpaceOnUse" color-interpolation-filters="sRGB">
<feFlood flood-opacity="0" result="BackgroundImageFix"/>
<feColorMatrix in="SourceAlpha" type="matrix" values="0 0 0 0 0 0 0 0 0 0 0 0 0 0 0 0 0 0 127 0" result="hardAlpha"/>
<feOffset dy="5.83333"/>
<feGaussianBlur stdDeviation="7"/>
<feColorMatrix type="matrix" values="0 0 0 0 0.156863 0 0 0 0 0.184314 0 0 0 0 0.396078 0 0 0 0.25 0"/>
<feBlend mode="normal" in2="BackgroundImageFix" result="effect1_dropShadow"/>
<feBlend mode="normal" in="SourceGraphic" in2="effect1_dropShadow" result="shape"/>
</filter>
</defs>
</svg>
