<svg width="112" height="112" viewBox="0 0 112 112" fill="none" xmlns="http://www.w3.org/2000/svg">
<g filter="url(#filter0_d)">
<rect x="18" y="12" width="80" height="80" rx="40" fill="#282F65"/>
</g>
<path d="M61.7109 64.1217V72.0517H70.8759V64.0915L66.3549 60.1481L61.7109 64.1217Z" fill="#C0DFF8"/>
<path d="M43.1599 70.64L46.1856 73.0558L49.2106 70.64C49.4076 70.4826 49.6879 70.4826 49.8849 70.64L52.9095 73.0558L55.9233 70.6488L56.1172 70.477C54.9864 67.2624 55.4468 63.7035 57.3582 60.8811C59.2697 58.0584 62.4067 56.306 65.8163 56.1556V37.8626C65.8163 36.6118 66.3578 35.4224 67.3021 34.6H43.832C41.7165 34.6024 40.0025 36.3135 40 38.4253V72.6253L42.486 70.64C42.683 70.4826 42.9629 70.4826 43.1599 70.64ZM49.8448 40.4782H62.8657C63.1635 40.4782 63.4051 40.7194 63.4051 41.0166C63.4051 41.3139 63.1635 41.5551 62.8657 41.5551H49.8448C49.5467 41.5551 49.3054 41.3139 49.3054 41.0166C49.3054 40.7194 49.5467 40.4782 49.8448 40.4782ZM49.8448 45.5921H62.8657C63.1635 45.5921 63.4051 45.833 63.4051 46.1306C63.4051 46.4279 63.1635 46.6691 62.8657 46.6691H49.8448C49.5467 46.6691 49.3054 46.4279 49.3054 46.1306C49.3054 45.833 49.5467 45.5921 49.8448 45.5921ZM49.8448 50.7061H62.8657C63.1635 50.7061 63.4051 50.947 63.4051 51.2446C63.4051 51.5419 63.1635 51.783 62.8657 51.783H49.8448C49.5467 51.783 49.3054 51.5419 49.3054 51.2446C49.3054 50.947 49.5467 50.7061 49.8448 50.7061ZM49.8448 55.8197H57.7428C58.0406 55.8197 58.2822 56.0609 58.2822 56.3582C58.2822 56.6558 58.0406 56.8967 57.7428 56.8967H49.8448C49.5467 56.8967 49.3054 56.6558 49.3054 56.3582C49.3054 56.0609 49.5467 55.8197 49.8448 55.8197ZM49.3922 66.1206H53.9518C54.2496 66.1206 54.4912 66.3615 54.4912 66.6591C54.4912 66.9564 54.2496 67.1975 53.9518 67.1975H49.3922C49.0944 67.1975 48.8528 66.9564 48.8528 66.6591C48.8528 66.3615 49.0944 66.1206 49.3922 66.1206ZM45.5904 40.4782H47.4066C47.7048 40.4782 47.946 40.7194 47.946 41.0166C47.946 41.3139 47.7048 41.5551 47.4066 41.5551H45.5904C45.2926 41.5551 45.051 41.3139 45.051 41.0166C45.051 40.7194 45.2926 40.4782 45.5904 40.4782ZM45.5904 45.5921H47.4066C47.7048 45.5921 47.946 45.833 47.946 46.1306C47.946 46.4279 47.7048 46.6691 47.4066 46.6691H45.5904C45.2926 46.6691 45.051 46.4279 45.051 46.1306C45.051 45.833 45.2926 45.5921 45.5904 45.5921ZM45.5904 50.7061H47.4066C47.7048 50.7061 47.946 50.947 47.946 51.2446C47.946 51.5419 47.7048 51.783 47.4066 51.783H45.5904C45.2926 51.783 45.051 51.5419 45.051 51.2446C45.051 50.947 45.2926 50.7061 45.5904 50.7061ZM45.5904 55.8197H47.4066C47.7048 55.8197 47.946 56.0609 47.946 56.3582C47.946 56.6558 47.7048 56.8967 47.4066 56.8967H45.5904C45.2926 56.8967 45.051 56.6558 45.051 56.3582C45.051 56.0609 45.2926 55.8197 45.5904 55.8197ZM42.9506 40.4782H43.1908C43.4889 40.4782 43.7302 40.7194 43.7302 41.0166C43.7302 41.3139 43.4889 41.5551 43.1908 41.5551H42.9506C42.6528 41.5551 42.4112 41.3139 42.4112 41.0166C42.4112 40.7194 42.6528 40.4782 42.9506 40.4782ZM42.9506 45.5921H43.1908C43.4889 45.5921 43.7302 45.833 43.7302 46.1306C43.7302 46.4279 43.4889 46.6691 43.1908 46.6691H42.9506C42.6528 46.6691 42.4112 46.4279 42.4112 46.1306C42.4112 45.833 42.6528 45.5921 42.9506 45.5921ZM42.9506 50.7061H43.1908C43.4889 50.7061 43.7302 50.947 43.7302 51.2446C43.7302 51.5419 43.4889 51.783 43.1908 51.783H42.9506C42.6528 51.783 42.4112 51.5419 42.4112 51.2446C42.4112 50.947 42.6528 50.7061 42.9506 50.7061ZM42.9506 55.8197H43.1908C43.4889 55.8197 43.7302 56.0609 43.7302 56.3582C43.7302 56.6558 43.4889 56.8967 43.1908 56.8967H42.9506C42.6528 56.8967 42.4112 56.6558 42.4112 56.3582C42.4112 56.0609 42.6528 55.8197 42.9506 55.8197ZM44.4782 65.5194C43.4415 65.5198 42.5653 64.7534 42.4291 63.728C42.2925 62.7027 42.9383 61.7348 43.9388 61.4648V61.0936C43.9388 60.7963 44.18 60.5551 44.4782 60.5551C44.776 60.5551 45.0176 60.7963 45.0176 61.0936V61.4648C45.918 61.7092 46.5434 62.5246 46.5448 63.4564C46.5448 63.7536 46.3032 63.9948 46.0054 63.9948C45.7076 63.9948 45.466 63.7536 45.466 63.4564C45.466 62.9116 45.0236 62.4699 44.4778 62.4699C43.9321 62.4699 43.49 62.9116 43.49 63.4564C43.49 64.0011 43.9325 64.4428 44.4782 64.4425C45.5145 64.4428 46.3903 65.2088 46.5269 66.2342C46.6632 67.2596 46.0177 68.2275 45.0176 68.4974V68.9381C45.0176 69.2353 44.776 69.4765 44.4782 69.4765C44.18 69.4765 43.9388 69.2353 43.9388 68.9381V68.4974C43.038 68.2534 42.4122 67.4377 42.4112 66.5059C42.4112 66.2083 42.6528 65.9674 42.9506 65.9674C43.2484 65.9674 43.49 66.2083 43.49 66.5059C43.4907 67.0457 43.9261 67.4853 44.4673 67.4917C44.4708 67.4917 44.4743 67.491 44.4782 67.491C44.4817 67.491 44.4852 67.491 44.4891 67.4917C45.0344 67.4885 45.4745 67.0447 45.4713 66.4999C45.4681 65.9555 45.0236 65.5163 44.4782 65.5194Z" fill="#FAFAFA"/>
<path d="M66.294 57.2214C60.9333 57.2214 56.5879 61.5596 56.5879 66.9106C56.5879 72.2619 60.9333 76.6001 66.294 76.6001C71.6547 76.6001 76.0005 72.2619 76.0005 66.9106C75.9942 61.5621 71.6522 57.2274 66.294 57.2214ZM73.4429 65.6156C73.2469 65.8393 72.9059 65.8624 72.6815 65.6668L71.9553 65.033V72.5904C71.9553 72.8876 71.7137 73.1288 71.4159 73.1288H61.1721C60.8743 73.1288 60.6327 72.8876 60.6327 72.5904V65.0449L59.9026 65.6696C59.7565 65.7979 59.5529 65.8379 59.3692 65.7741C59.1855 65.7106 59.0503 65.5532 59.0156 65.3622C58.9804 65.1714 59.0514 64.9765 59.2006 64.8521L60.7841 63.4968C60.808 63.4723 60.8339 63.4502 60.862 63.4302L66.0078 59.0275C66.2111 58.8533 66.5121 58.8547 66.7137 59.0307L73.3916 64.8552C73.4994 64.9492 73.5654 65.0821 73.5749 65.2247C73.5848 65.3674 73.537 65.508 73.4429 65.6156Z" fill="#C0DFF8"/>
<path d="M70.1629 34.6C68.3586 34.6021 66.8966 36.0615 66.8945 37.8626V47.3397H73.4313V37.8626C73.4292 36.0618 71.9673 34.6021 70.1629 34.6Z" fill="#FAFAFA"/>
<defs>
<filter id="filter0_d" x="0" y="0" width="112" height="112" filterUnits="userSpaceOnUse" color-interpolation-filters="sRGB">
<feFlood flood-opacity="0" result="BackgroundImageFix"/>
<feColorMatrix in="SourceAlpha" type="matrix" values="0 0 0 0 0 0 0 0 0 0 0 0 0 0 0 0 0 0 127 0" result="hardAlpha"/>
<feOffset dx="-2" dy="4"/>
<feGaussianBlur stdDeviation="8"/>
<feColorMatrix type="matrix" values="0 0 0 0 0.752941 0 0 0 0 0.87451 0 0 0 0 0.972549 0 0 0 0.8 0"/>
<feBlend mode="normal" in2="BackgroundImageFix" result="effect1_dropShadow"/>
<feBlend mode="normal" in="SourceGraphic" in2="effect1_dropShadow" result="shape"/>
</filter>
</defs>
</svg>
