<svg width="112" height="112" viewBox="0 0 112 112" fill="none" xmlns="http://www.w3.org/2000/svg">
<g filter="url(#filter0_d)">
<rect x="18" y="12" width="80" height="80" rx="40" fill="#282F65"/>
</g>
<path d="M53.6895 56.35H56.6964V57.1H53.6895V56.35Z" fill="white"/>
<path d="M46.9238 64.6H49.9308V67.6H46.9238V64.6Z" fill="white"/>
<path d="M58.2012 58.6H61.2081V59.35H58.2012V58.6Z" fill="white"/>
<path d="M53.6895 58.6H56.6964V59.35H53.6895V58.6Z" fill="white"/>
<path d="M70.2291 45.5394V37.6H65.7188V41.0394L70.2291 45.5394Z" fill="white"/>
<path d="M55.8004 38.934L55.8573 38.8772C56.7375 38.0027 58.1603 38.0027 59.0405 38.8772L74.1426 53.9446C74.4726 54.2716 75.0048 54.2716 75.3348 53.9446C75.6633 53.6158 75.6633 53.084 75.3348 52.7552L57.9753 35.4378C57.6823 35.1488 57.211 35.1488 56.9181 35.4378L55.3086 37.0432C55.5314 37.657 55.6958 38.2898 55.8004 38.934Z" fill="white"/>
<path d="M45.4212 49.6C50.4032 49.6 54.4419 45.5706 54.4419 40.6C54.4419 35.6294 50.4032 31.6 45.4212 31.6C40.4391 31.6 36.4004 35.6294 36.4004 40.6C36.4059 45.5684 40.4413 49.5945 45.4212 49.6ZM42.4142 42.85H43.9177V43.6C43.9177 44.0142 44.2543 44.35 44.6694 44.35H46.1729C46.588 44.35 46.9246 44.0142 46.9246 43.6V42.1C46.9246 41.6858 46.588 41.35 46.1729 41.35H44.6694C43.424 41.35 42.4142 40.3425 42.4142 39.1V37.6C42.4142 36.3574 43.424 35.35 44.6694 35.35V33.85H46.1729V35.35C47.4183 35.35 48.4281 36.3574 48.4281 37.6V38.35H46.9246V37.6C46.9246 37.1858 46.588 36.85 46.1729 36.85H44.6694C44.2543 36.85 43.9177 37.1858 43.9177 37.6V39.1C43.9177 39.5142 44.2543 39.85 44.6694 39.85H46.1729C47.4183 39.85 48.4281 40.8574 48.4281 42.1V43.6C48.4281 44.8425 47.4183 45.85 46.1729 45.85V47.35H44.6694V45.85C43.424 45.85 42.4142 44.8425 42.4142 43.6V42.85Z" fill="#C0DFF8"/>
<path d="M58.2012 56.35H61.2081V57.1H58.2012V56.35Z" fill="white"/>
<path d="M64.2148 34.6H71.7321V36.1H64.2148V34.6Z" fill="white"/>
<path d="M61.2068 73.6V63.1H53.6895V73.6H61.2068ZM54.4412 68.35H55.1929V66.85H54.4412V65.35H55.9446C56.3598 65.35 56.6964 65.6858 56.6964 66.1V69.1C56.6964 69.5142 56.3598 69.85 55.9446 69.85H54.4412V68.35Z" fill="white"/>
<path d="M39.5622 52.7553C39.2345 53.0845 39.2345 53.6155 39.5622 53.9447C39.8919 54.2725 40.4248 54.2725 40.7544 53.9447L43.75 50.9561C43.1047 50.8524 42.4701 50.6891 41.8549 50.4679L39.5622 52.7553Z" fill="white"/>
<path d="M45.7489 51.0836L45.7324 51.1001H69.1653L57.9752 39.938C57.6823 39.6491 57.211 39.6491 56.9181 39.938L55.9267 40.9272C55.7479 46.4599 51.2944 50.9042 45.7489 51.0836Z" fill="white"/>
<path d="M75.4902 71.35C75.075 71.35 74.7384 71.0142 74.7384 70.6C74.7384 69.3574 73.7287 68.35 72.4833 68.35C71.2378 68.35 70.2281 69.3574 70.2281 70.6C70.2314 70.7926 70.26 70.9841 70.3129 71.1691C70.3742 71.3994 70.322 71.6444 70.173 71.8301C70.0236 72.0157 69.7949 72.1198 69.5567 72.1106C69.5314 72.1106 69.4554 72.1014 69.4297 72.0985C68.4893 72.1128 67.6583 72.7119 67.3496 73.5985H78.4002C78.0555 72.2761 76.8597 71.3522 75.4902 71.35Z" fill="white"/>
<path d="M43.1651 71.3499C43.1314 71.3591 43.0965 71.3631 43.0612 71.3627C42.7287 71.3832 42.4244 71.1763 42.3216 70.8603C42.0838 70.1685 41.3787 69.7499 40.6559 69.8715C39.9328 69.9931 39.4043 70.6186 39.4065 71.3499C39.4087 71.5781 39.4637 71.8026 39.5672 72.0062C39.7093 72.2944 39.6517 72.6408 39.4241 72.8679C39.1961 73.0949 38.8485 73.1517 38.56 73.0096C37.8542 72.6643 37.0008 72.9221 36.6055 73.5999H46.0773C45.733 72.2761 44.5361 71.351 43.1651 71.3499Z" fill="white"/>
<path d="M69.4712 68.3807C69.6859 68.0922 69.941 67.8358 70.2288 67.6194V52.6H44.6699V70.1111C46.2101 70.6578 47.3344 71.9919 47.61 73.6H52.1872V62.35C52.1872 61.9358 52.5238 61.6 52.939 61.6H61.9597C62.3749 61.6 62.7115 61.9358 62.7115 62.35V73.6H65.801C66.1023 72.1296 67.2523 70.9794 68.7253 70.675C68.7253 70.6501 68.7253 70.6249 68.7253 70.6C68.7282 70.0375 68.8596 69.4834 69.1096 68.9791C68.9954 69.0546 68.8622 69.0963 68.7253 69.1H64.2149C63.7998 69.1 63.4632 68.7642 63.4632 68.35V63.85C63.4632 63.4358 63.7998 63.1 64.2149 63.1H68.7253C69.1404 63.1 69.477 63.4358 69.477 63.85V68.35C69.477 68.3613 69.4712 68.3701 69.4712 68.3807ZM51.4355 68.35C51.4355 68.7642 51.0989 69.1 50.6838 69.1H46.1734C45.7582 69.1 45.4217 68.7642 45.4217 68.35V63.85C45.4217 63.4358 45.7582 63.1 46.1734 63.1H50.6838C51.0989 63.1 51.4355 63.4358 51.4355 63.85V68.35ZM62.7115 59.35C62.7115 60.1783 62.0383 60.85 61.208 60.85H53.6907C52.8604 60.85 52.1872 60.1783 52.1872 59.35V56.35C52.1872 55.5216 52.8604 54.85 53.6907 54.85H61.208C62.0383 54.85 62.7115 55.5216 62.7115 56.35V59.35Z" fill="white"/>
<path d="M64.9668 64.6H67.9737V67.6H64.9668V64.6Z" fill="white"/>
<defs>
<filter id="filter0_d" x="0" y="0" width="112" height="112" filterUnits="userSpaceOnUse" color-interpolation-filters="sRGB">
<feFlood flood-opacity="0" result="BackgroundImageFix"/>
<feColorMatrix in="SourceAlpha" type="matrix" values="0 0 0 0 0 0 0 0 0 0 0 0 0 0 0 0 0 0 127 0" result="hardAlpha"/>
<feOffset dx="-2" dy="4"/>
<feGaussianBlur stdDeviation="8"/>
<feColorMatrix type="matrix" values="0 0 0 0 0.752941 0 0 0 0 0.87451 0 0 0 0 0.972549 0 0 0 0.8 0"/>
<feBlend mode="normal" in2="BackgroundImageFix" result="effect1_dropShadow"/>
<feBlend mode="normal" in="SourceGraphic" in2="effect1_dropShadow" result="shape"/>
</filter>
</defs>
</svg>
